<svg width="85" height="19" viewBox="0 0 85 19" fill="none" xmlns="http://www.w3.org/2000/svg">
<path fill-rule="evenodd" clip-rule="evenodd" d="M43.6272 2.21449C27.7379 0.282842 11.3847 2.16915 1.28203 9.06854C1.05399 9.22428 0.742881 9.16566 0.587148 8.93762C0.431414 8.70958 0.490029 8.39847 0.718067 8.24274C11.1154 1.14213 27.7622 -0.721559 43.7479 1.2218C59.1978 3.10002 74.2029 8.55542 82.5182 16.4747L82.5693 10.4922C82.5736 10.2161 82.8008 9.99575 83.077 10C83.3531 10.0042 83.5735 10.2315 83.5692 10.5076L83.5 17.6633C83.4957 17.9394 83.2685 18.1598 82.9924 18.1556L75.9922 18.0864C75.7161 18.0821 75.4958 17.8548 75.5 17.5787C75.5042 17.3026 75.7315 17.0822 76.0076 17.0865L81.7629 17.1366C73.6607 9.46641 58.9455 4.07671 43.6272 2.21449Z" fill="#89898B" stroke="#89898B"/>
</svg>
