<svg width="86" height="34" viewBox="0 0 86 34" fill="none" xmlns="http://www.w3.org/2000/svg">
<path fill-rule="evenodd" clip-rule="evenodd" d="M42.8027 24.1124C26.8277 23.1117 11.0934 18.2726 2.41959 9.64533C2.2238 9.45059 1.90722 9.45145 1.71248 9.64723C1.51775 9.84302 1.5186 10.1596 1.71439 10.3543C10.6412 19.2332 26.6683 24.1037 42.7402 25.1104C58.2734 26.0834 74.0221 23.458 83.643 17.1893L82.6015 23.0806C82.5553 23.3529 82.7386 23.611 83.0108 23.6573C83.2831 23.7035 83.5412 23.5202 83.5874 23.248L84.8253 16.1998C84.8715 15.9276 84.6883 15.6694 84.416 15.6232L77.5209 14.4137C77.2486 14.3675 76.9904 14.5508 76.9442 14.823C76.898 15.0952 77.0813 15.3534 77.3535 15.3996L83.0213 16.4007C73.6553 22.4634 58.2036 25.077 42.8027 24.1124Z" fill="#89898B" stroke="#89898B"/>
</svg>
