<svg width="472" height="108" viewBox="0 0 472 108" fill="none" xmlns="http://www.w3.org/2000/svg">
<g clip-path="url(#clip0)">
<path d="M439 42.8911L435.492 51.3594L434.59 51.0605C430.682 49.9646 429.679 49.4665 428.176 50.7616C426.673 52.0568 427.174 56.9385 427.174 60.1265V78.0593H415.247V48.1714C415.247 43.2897 418.655 39.8027 423.867 39.3046C428.577 38.9061 432.586 39.1053 439 42.8911Z" fill="#31527F"/>
<path d="M156.173 29.6406L139.236 62.2185V78.2583H127.309V62.2185L110.372 29.6406H123.902L133.423 50.064L142.844 29.6406H156.173V29.6406Z" fill="#219FC1"/>
<path d="M237.253 57.536C238.957 59.7278 239.859 62.2185 239.859 65.1076C239.859 69.1923 238.455 72.3803 235.549 74.7714C232.643 77.1624 228.734 78.3579 223.623 78.3579H200.772V29.6406H222.821C227.832 29.6406 231.64 30.7365 234.547 33.0279C237.353 35.3193 238.756 38.4077 238.756 42.2932C238.756 45.1823 237.954 47.5734 236.451 49.4663C234.948 51.3592 232.943 52.6543 230.438 53.4513C233.244 53.9495 235.549 55.3442 237.253 57.536ZM212.698 49.3666H220.516C222.42 49.3666 223.923 48.9681 225.026 48.0715C226.028 47.1749 226.629 45.9794 226.629 44.2857C226.629 42.5921 226.128 41.3965 225.026 40.4999C224.023 39.6033 222.52 39.2048 220.516 39.2048H212.698V49.3666ZM226.128 67.399C227.231 66.5024 227.732 65.2072 227.732 63.5136C227.732 61.8199 227.13 60.4252 226.028 59.5285C224.925 58.5323 223.322 58.0341 221.317 58.0341H212.698V68.7938H221.518C223.522 68.7938 225.026 68.2957 226.128 67.399Z" fill="#31527F"/>
<path d="M252.887 76.2661C249.881 74.6721 247.475 72.3807 245.671 69.2923C243.968 66.3035 243.066 62.8166 243.066 58.7319C243.066 54.7468 243.968 51.2599 245.671 48.2711C247.475 45.2823 249.881 42.8913 252.887 41.2973C255.994 39.7033 259.402 38.9062 263.21 38.9062C267.019 38.9062 270.426 39.7033 273.533 41.2973C276.64 42.8913 279.045 45.2823 280.749 48.2711C282.553 51.2599 283.355 54.8465 283.355 58.7319C283.355 62.717 282.453 66.2039 280.649 69.1927C278.845 72.1815 276.44 74.5725 273.333 76.1665C270.226 77.7605 266.818 78.5576 263.01 78.5576C259.302 78.6572 255.894 77.8602 252.887 76.2661ZM269.023 65.905C270.627 64.2114 271.429 61.8203 271.429 58.7319C271.429 55.6435 270.627 53.2525 269.123 51.5588C267.52 49.8652 265.616 49.0681 263.411 49.0681C261.106 49.0681 259.201 49.8652 257.598 51.5588C256.095 53.1528 255.293 55.5439 255.293 58.7319C255.293 61.8203 256.095 64.2114 257.598 65.905C259.101 67.5987 261.005 68.3957 263.311 68.3957C265.415 68.3957 267.42 67.5987 269.023 65.905Z" fill="#31527F"/>
<path d="M295.983 76.4654C292.976 74.8713 290.571 72.5799 288.767 69.4915C287.063 66.5027 286.161 63.0158 286.161 58.9311C286.161 54.9461 287.063 51.4591 288.767 48.4704C290.571 45.4816 292.976 43.0905 295.983 41.4965C299.09 39.9025 302.497 39.1055 306.306 39.1055C310.114 39.1055 313.522 39.9025 316.629 41.4965C319.736 43.0905 322.141 45.4816 323.845 48.4704C325.649 51.4591 326.451 55.0457 326.451 58.9311C326.451 62.9162 325.549 66.4031 323.745 69.3919C321.941 72.3807 319.535 74.7717 316.428 76.3657C313.321 77.9598 309.914 78.7568 306.105 78.7568C302.497 78.8564 298.99 78.0594 295.983 76.4654ZM312.119 66.1042C313.722 64.4106 314.524 62.0195 314.524 58.9311C314.524 55.8427 313.722 53.4517 312.219 51.758C310.615 50.0644 308.711 49.2674 306.506 49.2674C304.201 49.2674 302.297 50.0644 300.693 51.758C299.19 53.352 298.388 55.7431 298.388 58.9311C298.388 62.0195 299.19 64.4106 300.693 66.1042C302.197 67.7979 304.101 68.5949 306.406 68.5949C308.511 68.5949 310.515 67.7979 312.119 66.1042Z" fill="#31527F"/>
<path d="M355.415 78.3584L343.589 62.1193V78.3584H331.662V27.0508H343.589V55.4443L355.415 39.7033H370.047L353.911 59.1305L370.248 78.3584H355.415Z" fill="#31527F"/>
<path d="M410.036 61.8203H383.076C383.276 64.2114 384.078 66.1043 385.381 67.2998C386.784 68.5949 388.488 69.1927 390.392 69.1927C393.399 69.1927 395.403 67.8975 396.606 65.4069H409.334C408.633 67.9972 407.53 70.1889 405.826 72.2811C404.123 74.2736 402.018 75.8676 399.412 77.0632C396.806 78.2587 394 78.7568 390.793 78.7568C386.985 78.7568 383.577 77.9598 380.57 76.3658C377.564 74.7718 375.259 72.4803 373.555 69.3919C371.851 66.4031 371.049 62.9162 371.049 58.8315C371.049 54.7468 371.851 51.2599 373.555 48.2711C375.158 45.2823 377.564 42.9909 380.47 41.2973C383.477 39.7033 386.884 38.9062 390.693 38.9062C394.501 38.9062 397.809 39.7033 400.715 41.2973C403.622 42.8913 405.927 45.0831 407.63 48.0719C409.234 50.961 410.136 54.3483 410.136 58.2338C410.236 59.4293 410.136 60.6248 410.036 61.8203ZM398.009 55.245C398.009 53.2525 397.308 51.5588 395.904 50.3633C394.501 49.1678 392.798 48.57 390.693 48.57C388.688 48.57 386.985 49.1678 385.682 50.2637C384.279 51.4592 383.477 53.0532 383.176 55.1454H398.009V55.245Z" fill="#31527F"/>
<path d="M193.255 57.9349C193.155 54.3483 192.253 51.2599 190.649 48.4704C188.845 45.4816 186.44 43.0905 183.433 41.4965C180.327 39.9025 176.919 39.1055 173.111 39.1055C169.302 39.1055 165.895 39.9025 162.788 41.4965C159.681 43.0905 157.276 45.4816 155.572 48.4704C153.768 51.4591 152.966 55.0457 152.966 58.9311C152.966 62.9162 153.868 66.5027 155.572 69.4915C157.276 72.4803 159.681 74.7717 162.788 76.4654C165.794 78.0594 169.302 78.8564 173.111 78.8564C176.618 78.8564 178.923 77.4616 181.529 76.4654V78.2586H193.456L193.255 57.9349ZM167.198 66.1042C165.694 64.4106 164.892 62.0195 164.892 58.9311C164.892 55.7431 165.694 53.352 167.198 51.758C168.1 50.7618 169.202 50.0644 170.405 49.6659C171.106 49.4666 171.908 49.367 172.71 49.367C175.115 49.367 177.119 50.2636 178.723 51.9573C178.923 52.1565 179.124 52.3558 179.324 52.6547C180.427 54.2487 181.028 56.3408 181.028 59.0307C181.028 62.1192 180.226 64.5102 178.623 66.1042C177.019 67.6982 175.015 68.5949 172.71 68.5949C171.607 68.5949 170.505 68.3956 169.603 67.9971C168.801 67.499 167.899 66.9012 167.198 66.1042Z" fill="#219FC1"/>
<path d="M33 92.1071L73.1891 14L75.2938 83.34L33 92.1071Z" fill="#31527F"/>
<path d="M76.5966 17.3877L78.7013 82.643L106.764 76.765L76.5966 17.3877Z" fill="#31527F"/>
<path d="M50.6391 91.8075L100.85 81.3467L76.296 93.9992L50.6391 91.8075Z" fill="#219FC1"/>
</g>
<defs>
<clipPath id="clip0">
<rect width="472" height="108" fill="white"/>
</clipPath>
</defs>
</svg>
