<svg width="56" height="56" viewBox="0 0 56 56" fill="none" xmlns="http://www.w3.org/2000/svg">
<path d="M4 28C4 14.7451 14.7451 4 28 4C41.2549 4 52 14.7451 52 28C52 41.2549 41.2549 52 28 52C14.7451 52 4 41.2549 4 28Z" fill="black"/>
<path fill-rule="evenodd" clip-rule="evenodd" d="M27.5143 4C27.4009 13.8738 26.7553 19.3996 23.0774 23.0774C19.3996 26.7553 13.8738 27.4009 4 27.5143V28.9472C13.8738 29.0605 19.3996 29.7062 23.0774 33.3841C26.6976 37.0042 27.3799 42.4148 27.5086 52H28.953C29.0815 42.4148 29.7639 37.0042 33.3841 33.3841C37.0042 29.7639 42.4148 29.0815 52 28.953V27.5085C42.4148 27.3799 37.0042 26.6976 33.3841 23.0774C29.7062 19.3996 29.0605 13.8738 28.9472 4H27.5143Z" fill="white"/>
</svg>
