<svg width="132" height="132" viewBox="0 0 132 132" fill="none" xmlns="http://www.w3.org/2000/svg">
<path d="M56.4922 92.0598C56.1677 92.0606 55.8464 91.9969 55.5466 91.8726C55.2469 91.7483 54.9748 91.5658 54.7461 91.3357L54.5703 91.1599L49.7988 81.7547L49.3008 81.2556L39.8945 76.4846L39.7183 76.3079C39.2565 75.8449 38.9971 75.2177 38.9971 74.5637C38.9971 73.9098 39.2565 73.2826 39.7183 72.8196L43.0088 69.5286L51.2608 71.6643C51.6411 71.0867 52.0791 70.5491 52.5679 70.0598L59.2344 62.8269L40.3164 52.4153L40.1597 52.2561C39.6422 51.7386 39.3514 51.0366 39.3514 50.3047C39.3514 49.5728 39.6422 48.8708 40.1597 48.3533V48.3533L45.0816 43.4304L70.2969 50.9783L77.6294 43.1419C78.3365 42.4243 79.1788 41.8541 80.1077 41.4643C81.0366 41.0744 82.0337 40.8727 83.041 40.8709C83.9565 40.863 84.8646 41.0355 85.7134 41.3786C86.5623 41.7217 87.3352 42.2286 87.9881 42.8704C88.641 43.5123 89.1611 44.2764 89.5187 45.1192C89.8763 45.962 90.0644 46.867 90.0723 47.7825V47.7825C90.0723 47.8904 90.0723 47.9988 90.0679 48.1067C90.0074 50.0684 89.1952 51.9317 87.7993 53.3113L80.0249 60.5867L87.6236 85.9744L82.6992 90.8967C82.1822 91.4144 81.4807 91.7055 80.7491 91.7059C80.0174 91.7064 79.3156 91.4162 78.7979 90.8992L78.7949 90.8963L78.6377 90.7395L78.5308 90.5442L68.1485 71.677L60.8828 78.3757C60.4136 78.8435 59.9001 79.2648 59.3496 79.6336L61.5264 88.0471L58.2363 91.3377C58.0077 91.5672 57.7359 91.7492 57.4365 91.8732C57.1372 91.9971 56.8162 92.0606 56.4922 92.0598V92.0598ZM42.6113 74.3538L51.1602 78.6902L52.3648 79.8928L56.7027 88.4431L58.0479 87.0979L55.7041 78.0349L56.8467 77.4724C57.5318 77.1318 58.1562 76.6808 58.6948 76.1375L58.7407 76.093L68.9663 66.6663L80.8721 88.2996L84.0918 85.0798L76.4746 59.6243L85.624 51.0637C86.4335 50.2536 86.9039 49.1655 86.9395 48.0208C86.9864 47.0026 86.6269 46.0074 85.9402 45.2543C85.2534 44.5011 84.2956 44.0516 83.2774 44.0047C83.1988 44.0012 83.1201 43.9998 83.0415 44.0012C82.4493 44.0041 81.8635 44.1237 81.3176 44.3532C80.7716 44.5826 80.2763 44.9175 79.8599 45.3386L71.2583 54.5339L45.9732 46.9656L42.7534 50.1853L64.2422 62.0125L54.8032 72.2498C54.2443 72.8029 53.7832 73.4468 53.4395 74.1541L52.8828 75.3157L43.9566 73.0081L42.6113 74.3538Z" fill="black" stroke="black"/>
<path d="M112.07 45.5371C106.989 33.5519 97.4481 24.0111 85.4629 18.9302C79.2974 16.3223 72.749 15 66 15C59.251 15 52.7026 16.3223 46.5371 18.9302C34.5519 24.0111 25.0111 33.5519 19.9302 45.5371C17.3223 51.7026 16 58.251 16 65C16 71.749 17.3223 78.2974 19.9302 84.4629C25.0111 96.4481 34.5519 105.989 46.5371 111.07C52.7026 113.678 59.251 115 66 115C72.749 115 79.2974 113.678 85.4629 111.07C97.4481 105.989 106.989 96.4481 112.07 84.4629C114.678 78.2974 116 71.749 116 65C116 58.251 114.678 51.7026 112.07 45.5371ZM66 111.214C59.7603 111.214 53.7085 109.994 48.0117 107.583C36.9337 102.885 28.1148 94.0659 23.417 82.9878C21.0073 77.292 19.7856 71.2397 19.7856 65C19.7856 58.7603 21.0063 52.7085 23.417 47.0117C28.1149 35.9338 36.9338 27.1149 48.0117 22.417C53.7085 20.0073 59.7603 18.7856 66 18.7856C72.2397 18.7856 78.292 20.0063 83.9878 22.417C95.0659 27.1148 103.885 35.9337 108.583 47.0117C110.993 52.7085 112.214 58.7603 112.214 65C112.214 71.2397 110.994 77.2915 108.583 82.9878C103.885 94.0662 95.0662 102.885 83.9878 107.583C78.2915 109.993 72.2397 111.214 66 111.214Z" fill="black" stroke="black" stroke-width="2"/>
<path d="M33.1277 28.2796L28.9728 32.4346L99.0758 102.538L103.231 98.3827L33.1277 28.2796Z" fill="black"/>
</svg>
