<svg width="132" height="132" viewBox="0 0 132 132" fill="none" xmlns="http://www.w3.org/2000/svg">
<path d="M40.8223 53.7856C40.0983 53.7856 39.4039 54.0997 38.8919 54.6586C38.3799 55.2175 38.0923 55.9756 38.0923 56.7661C38.0923 57.5565 38.3799 58.3146 38.8919 58.8735C39.4039 59.4325 40.0983 59.7465 40.8223 59.7465H90.1751C90.8992 59.7465 91.5936 59.4325 92.1055 58.8735C92.6175 58.3146 92.9051 57.5565 92.9051 56.7661C92.9051 55.9756 92.6175 55.2175 92.1055 54.6586C91.5936 54.0997 90.8992 53.7856 90.1751 53.7856H40.8223Z" fill="black"/>
<path d="M41.4178 65.0156C40.6937 65.0156 39.9994 65.3296 39.4874 65.8886C38.9754 66.4475 38.6878 67.2056 38.6878 67.996C38.6878 68.7865 38.9754 69.5446 39.4874 70.1035C39.9994 70.6624 40.6937 70.9764 41.4178 70.9764H89.5796C90.3037 70.9764 90.998 70.6624 91.51 70.1035C92.022 69.5446 92.3096 68.7865 92.3096 67.996C92.3096 67.2056 92.022 66.4475 91.51 65.8886C90.998 65.3296 90.3037 65.0156 89.5796 65.0156H41.4178Z" fill="black"/>
<path d="M45.8387 76.2451C45.1147 76.2451 44.4203 76.5591 43.9083 77.1181C43.3963 77.677 43.1087 78.4351 43.1087 79.2255C43.1087 80.016 43.3963 80.774 43.9083 81.333C44.4203 81.8919 45.1147 82.2059 45.8387 82.2059H85.1595C85.8836 82.2059 86.578 81.8919 87.09 81.333C87.6019 80.774 87.8896 80.016 87.8896 79.2255C87.8896 78.4351 87.6019 77.677 87.09 77.1181C86.578 76.5591 85.8836 76.2451 85.1595 76.2451H45.8387Z" fill="black"/>
<path d="M26.616 40.374C38.8157 34.7913 52.169 32 65.4991 32C78.9146 32 92.3523 34.8267 104.615 40.4802L103.559 43.2212L104.621 40.4746C105.083 40.6872 105.481 41.0342 105.774 41.4778C106.067 41.9213 106.243 42.4442 106.281 42.9893C110.12 69.1665 101.692 86.9698 88.9406 96.3273C81.9705 101.442 73.7276 104 65.4991 104C57.2707 104 49.0277 101.432 42.0576 96.3189C29.2667 86.9325 20.8215 69.0492 24.7519 42.7388L27.4392 43.2166L24.7442 42.7369C24.8254 42.1925 25.0433 41.6834 25.3738 41.2663C25.7043 40.8491 26.1343 40.5402 26.616 40.374ZM65.4991 37.9608C53.278 37.9608 41.0774 40.415 29.9005 45.3187C26.9402 68.0442 34.1841 83.3803 45.0863 91.3808C51.1256 95.8123 58.3055 98.0289 65.4991 98.0289C72.6927 98.0289 79.8727 95.8123 85.912 91.3808C96.8142 83.3803 104.058 68.047 101.098 45.3187C89.9217 40.4131 77.7219 37.9608 65.4991 37.9608Z" fill="black"/>
<path d="M26.7346 71.5351C27.3992 71.8439 28.149 71.8518 28.819 71.557C29.4889 71.2623 30.0242 70.689 30.3071 69.9634C30.5899 69.2378 30.5971 68.4193 30.3271 67.6879C30.0571 66.9564 29.532 66.3721 28.8674 66.0633C15.9476 60.041 8.61235 51.3383 6.20653 45.3262C5.48904 43.5361 5.24931 42.262 5.48819 41.6994C5.53511 41.5886 5.67758 41.9667 6.23724 42.1474C9.71801 43.2744 15.7556 48.424 24.2938 59.9945C24.7492 60.5992 25.4047 60.9834 26.118 61.0637C26.8313 61.1441 27.5448 60.914 28.1037 60.4234C28.6626 59.9329 29.0216 59.2215 29.103 58.4436C29.1843 57.6658 28.9813 56.8844 28.5381 56.269C19.2117 43.6358 12.1383 37.8584 7.76861 36.4428C4.15645 35.273 1.70626 36.4428 0.535762 39.208C-0.348935 41.2962 -0.146742 44.3073 1.21144 47.7012C4.03957 54.7564 12.3593 64.8385 26.7346 71.5361V71.5351Z" fill="black"/>
<path d="M102.131 66.0643C101.802 66.2172 101.503 66.4393 101.253 66.7181C101.003 66.9968 100.805 67.3267 100.671 67.6889C100.537 68.051 100.47 68.4384 100.474 68.8288C100.477 69.2193 100.551 69.6051 100.691 69.9644C100.831 70.3237 101.035 70.6494 101.29 70.9228C101.545 71.1962 101.848 71.4121 102.179 71.558C102.511 71.704 102.866 71.7772 103.223 71.7734C103.581 71.7696 103.935 71.689 104.264 71.5361C118.639 64.8302 126.957 54.7565 129.787 47.7013C131.152 44.3074 131.347 41.2962 130.462 39.2081C129.292 36.4456 126.842 35.273 123.23 36.4428C118.86 37.8585 111.787 43.6358 102.464 56.269C102.021 56.8844 101.818 57.6659 101.9 58.4437C101.981 59.2215 102.34 59.9329 102.899 60.4235C103.458 60.914 104.171 61.1441 104.885 61.0638C105.598 60.9835 106.253 60.5993 106.709 59.9945C115.247 48.424 121.284 43.2754 124.765 42.1475C125.325 41.9668 125.467 41.5887 125.514 41.6995C125.753 42.2583 125.514 43.5362 124.796 45.3263C122.386 51.3383 115.051 60.042 102.131 66.0643Z" fill="black"/>
</svg>
