<svg width="132" height="132" viewBox="0 0 132 132" fill="none" xmlns="http://www.w3.org/2000/svg">
<path d="M107.75 109.88V61.017L111.677 64.7736L112.035 65.1152L115.565 61.4328L67.7653 15.7073C67.2899 15.253 66.6576 14.9995 66 14.9995C65.3424 14.9995 64.7101 15.253 64.2347 15.7073L45.8683 33.2747V24.2316H47.9307V19.1165H26.3139V24.2316H28.3762V50.0064L16.4347 61.4328L19.9653 65.1182L24.2505 61.0199V109.883H16V115H116V109.884L107.75 109.88ZM40.7525 38.1641L33.4921 45.1091V24.2316H40.7525V38.1641ZM29.3663 56.1236L66 21.0799L102.634 56.1236V109.88H29.3663V56.1236Z" fill="black" stroke="black"/>
<path d="M66 41.8066C48.6386 41.8066 34.5644 55.8817 34.5644 73.2442C34.5644 90.6066 48.6376 104.682 65.999 104.682C83.3604 104.682 97.4356 90.6066 97.4356 73.2442C97.4356 64.9064 94.1237 56.9102 88.2284 51.0145C82.333 45.1188 74.3373 41.8066 66 41.8066V41.8066ZM66 99.5665C51.4644 99.5665 39.6812 87.7787 39.6832 73.2422C39.6852 58.7057 51.4654 46.9218 66.006 46.9238C80.5465 46.9258 92.3248 58.7067 92.3228 73.2481C92.3224 76.7047 91.6412 80.1273 90.3182 83.3206C88.9951 86.5139 87.0561 89.4154 84.6118 91.8593C82.1675 94.3031 79.2658 96.2416 76.0724 97.5641C72.879 98.8865 69.4564 99.5669 66 99.5665V99.5665Z" fill="black"/>
<path d="M74.7454 73.244C74.7441 70.9244 73.8215 68.7004 72.1804 67.0611C70.5394 65.4218 68.3144 64.5016 65.995 64.5029C63.6755 64.5042 61.4516 65.427 59.8124 67.0681C58.1732 68.7092 57.253 70.9343 57.2544 73.2539C57.2543 73.6091 57.2762 73.9639 57.3197 74.3164L45.9395 79.3761L48.0187 84.0506L59.4049 78.986C60.5794 80.3374 62.1409 81.2953 63.8778 81.7299C65.6147 82.1645 67.4432 82.0548 69.1157 81.4158L78.7197 93.7641L82.7573 90.6233L73.1534 78.2711C74.1912 76.8004 74.7474 75.0441 74.7454 73.244V73.244ZM65.9999 69.6141C66.718 69.6141 67.42 69.8271 68.017 70.226C68.6141 70.625 69.0794 71.1921 69.3542 71.8555C69.629 72.519 69.7009 73.2491 69.5608 73.9534C69.4208 74.6577 69.075 75.3047 68.5672 75.8125C68.0594 76.3203 67.4125 76.6661 66.7082 76.8062C66.0039 76.9463 65.2739 76.8744 64.6105 76.5996C63.9471 76.3247 63.38 75.8594 62.9811 75.2623C62.5822 74.6652 62.3692 73.9632 62.3692 73.245V73.245C62.3703 72.2824 62.7531 71.3595 63.4338 70.6788C64.1144 69.9981 65.0373 69.6152 65.9999 69.6141Z" fill="black"/>
<path d="M47.9306 70.6865H42.8148V75.8027H47.9306V70.6865Z" fill="black"/>
<path d="M68.5584 91.3145H63.4426V96.4306H68.5584V91.3145Z" fill="black"/>
<path d="M68.5584 50.0586H63.4426V55.1747H68.5584V50.0586Z" fill="black"/>
<path d="M89.1852 70.6865H84.0693V75.8027H89.1852V70.6865Z" fill="black"/>
</svg>
